<mxfile host="app.diagrams.net" agent="Mozilla/5.0 (Macintosh; Intel Mac OS X 10_15_7) AppleWebKit/537.36 (KHTML, like Gecko) Chrome/131.0.0.0 Safari/537.36" version="26.0.5">
  <diagram name="ページ1" id="g2LiyGsbFztUu-VZV9Sq">
    <mxGraphModel dx="1434" dy="819" grid="0" gridSize="10" guides="1" tooltips="1" connect="1" arrows="1" fold="1" page="1" pageScale="1" pageWidth="827" pageHeight="1169" math="0" shadow="0">
      <root>
        <mxCell id="0" />
        <mxCell id="1" parent="0" />
        <mxCell id="y7YUD5gvW1xx9Sv0R6KF-39" style="edgeStyle=orthogonalEdgeStyle;rounded=0;orthogonalLoop=1;jettySize=auto;html=1;exitX=0.5;exitY=1;exitDx=0;exitDy=0;entryX=0.5;entryY=0;entryDx=0;entryDy=0;" edge="1" parent="1" source="y7YUD5gvW1xx9Sv0R6KF-1" target="y7YUD5gvW1xx9Sv0R6KF-5">
          <mxGeometry relative="1" as="geometry" />
        </mxCell>
        <mxCell id="y7YUD5gvW1xx9Sv0R6KF-40" style="edgeStyle=orthogonalEdgeStyle;rounded=0;orthogonalLoop=1;jettySize=auto;html=1;exitX=0;exitY=0.5;exitDx=0;exitDy=0;entryX=0.5;entryY=0;entryDx=0;entryDy=0;" edge="1" parent="1" source="y7YUD5gvW1xx9Sv0R6KF-1" target="y7YUD5gvW1xx9Sv0R6KF-2">
          <mxGeometry relative="1" as="geometry" />
        </mxCell>
        <mxCell id="y7YUD5gvW1xx9Sv0R6KF-41" style="edgeStyle=orthogonalEdgeStyle;rounded=0;orthogonalLoop=1;jettySize=auto;html=1;exitX=1;exitY=0.5;exitDx=0;exitDy=0;entryX=0.5;entryY=0;entryDx=0;entryDy=0;" edge="1" parent="1" source="y7YUD5gvW1xx9Sv0R6KF-1" target="y7YUD5gvW1xx9Sv0R6KF-6">
          <mxGeometry relative="1" as="geometry" />
        </mxCell>
        <mxCell id="y7YUD5gvW1xx9Sv0R6KF-1" value="サイドメニュー&lt;div&gt;（01_メニュー画面.）&lt;/div&gt;" style="rounded=0;whiteSpace=wrap;html=1;" vertex="1" parent="1">
          <mxGeometry x="330" y="10" width="140" height="60" as="geometry" />
        </mxCell>
        <mxCell id="y7YUD5gvW1xx9Sv0R6KF-21" style="edgeStyle=orthogonalEdgeStyle;rounded=0;orthogonalLoop=1;jettySize=auto;html=1;exitX=0.5;exitY=1;exitDx=0;exitDy=0;entryX=0.5;entryY=0;entryDx=0;entryDy=0;" edge="1" parent="1" source="y7YUD5gvW1xx9Sv0R6KF-2" target="y7YUD5gvW1xx9Sv0R6KF-3">
          <mxGeometry relative="1" as="geometry" />
        </mxCell>
        <mxCell id="y7YUD5gvW1xx9Sv0R6KF-2" value="02_料理検索画面" style="rounded=0;whiteSpace=wrap;html=1;" vertex="1" parent="1">
          <mxGeometry x="150" y="90" width="140" height="60" as="geometry" />
        </mxCell>
        <mxCell id="y7YUD5gvW1xx9Sv0R6KF-22" style="edgeStyle=orthogonalEdgeStyle;rounded=0;orthogonalLoop=1;jettySize=auto;html=1;exitX=0.5;exitY=1;exitDx=0;exitDy=0;entryX=0.5;entryY=0;entryDx=0;entryDy=0;" edge="1" parent="1" source="y7YUD5gvW1xx9Sv0R6KF-3" target="y7YUD5gvW1xx9Sv0R6KF-4">
          <mxGeometry relative="1" as="geometry" />
        </mxCell>
        <mxCell id="y7YUD5gvW1xx9Sv0R6KF-3" value="&lt;div&gt;&lt;span style=&quot;background-color: transparent; color: light-dark(rgb(0, 0, 0), rgb(255, 255, 255));&quot;&gt;03_料理検索結果&lt;/span&gt;&lt;/div&gt;" style="rounded=0;whiteSpace=wrap;html=1;" vertex="1" parent="1">
          <mxGeometry x="150" y="180" width="140" height="60" as="geometry" />
        </mxCell>
        <mxCell id="y7YUD5gvW1xx9Sv0R6KF-4" value="04_レシピ表示画面（HTML)" style="rounded=0;whiteSpace=wrap;html=1;" vertex="1" parent="1">
          <mxGeometry x="150" y="270" width="140" height="60" as="geometry" />
        </mxCell>
        <mxCell id="y7YUD5gvW1xx9Sv0R6KF-5" value="05_新規登録画面" style="rounded=0;whiteSpace=wrap;html=1;" vertex="1" parent="1">
          <mxGeometry x="330" y="90" width="140" height="60" as="geometry" />
        </mxCell>
        <mxCell id="y7YUD5gvW1xx9Sv0R6KF-42" style="edgeStyle=orthogonalEdgeStyle;rounded=0;orthogonalLoop=1;jettySize=auto;html=1;entryX=0.5;entryY=0;entryDx=0;entryDy=0;" edge="1" parent="1" source="y7YUD5gvW1xx9Sv0R6KF-6" target="y7YUD5gvW1xx9Sv0R6KF-10">
          <mxGeometry relative="1" as="geometry">
            <Array as="points">
              <mxPoint x="570" y="210" />
              <mxPoint x="400" y="210" />
            </Array>
          </mxGeometry>
        </mxCell>
        <mxCell id="y7YUD5gvW1xx9Sv0R6KF-44" style="edgeStyle=orthogonalEdgeStyle;rounded=0;orthogonalLoop=1;jettySize=auto;html=1;exitX=0.75;exitY=1;exitDx=0;exitDy=0;" edge="1" parent="1" source="y7YUD5gvW1xx9Sv0R6KF-6">
          <mxGeometry relative="1" as="geometry">
            <mxPoint x="580" y="280" as="targetPoint" />
          </mxGeometry>
        </mxCell>
        <mxCell id="y7YUD5gvW1xx9Sv0R6KF-6" value="06_ユーザ管理" style="rounded=0;whiteSpace=wrap;html=1;" vertex="1" parent="1">
          <mxGeometry x="500" y="90" width="140" height="60" as="geometry" />
        </mxCell>
        <mxCell id="y7YUD5gvW1xx9Sv0R6KF-32" style="edgeStyle=orthogonalEdgeStyle;rounded=0;orthogonalLoop=1;jettySize=auto;html=1;exitX=0.5;exitY=1;exitDx=0;exitDy=0;entryX=0.5;entryY=0;entryDx=0;entryDy=0;" edge="1" parent="1" source="y7YUD5gvW1xx9Sv0R6KF-7" target="y7YUD5gvW1xx9Sv0R6KF-8">
          <mxGeometry relative="1" as="geometry" />
        </mxCell>
        <mxCell id="y7YUD5gvW1xx9Sv0R6KF-7" value="07_ID入力画面" style="rounded=0;whiteSpace=wrap;html=1;" vertex="1" parent="1">
          <mxGeometry x="510" y="280" width="140" height="60" as="geometry" />
        </mxCell>
        <mxCell id="y7YUD5gvW1xx9Sv0R6KF-33" style="edgeStyle=orthogonalEdgeStyle;rounded=0;orthogonalLoop=1;jettySize=auto;html=1;exitX=0.5;exitY=1;exitDx=0;exitDy=0;entryX=0.5;entryY=0;entryDx=0;entryDy=0;" edge="1" parent="1" source="y7YUD5gvW1xx9Sv0R6KF-8" target="y7YUD5gvW1xx9Sv0R6KF-9">
          <mxGeometry relative="1" as="geometry" />
        </mxCell>
        <mxCell id="y7YUD5gvW1xx9Sv0R6KF-8" value="08_質問回答画面" style="rounded=0;whiteSpace=wrap;html=1;" vertex="1" parent="1">
          <mxGeometry x="510" y="362" width="140" height="60" as="geometry" />
        </mxCell>
        <mxCell id="y7YUD5gvW1xx9Sv0R6KF-34" style="edgeStyle=orthogonalEdgeStyle;rounded=0;orthogonalLoop=1;jettySize=auto;html=1;exitX=0.5;exitY=1;exitDx=0;exitDy=0;entryX=1;entryY=0.5;entryDx=0;entryDy=0;" edge="1" parent="1" source="y7YUD5gvW1xx9Sv0R6KF-9" target="y7YUD5gvW1xx9Sv0R6KF-10">
          <mxGeometry relative="1" as="geometry" />
        </mxCell>
        <mxCell id="y7YUD5gvW1xx9Sv0R6KF-9" value="09_パスワード再登録" style="rounded=0;whiteSpace=wrap;html=1;" vertex="1" parent="1">
          <mxGeometry x="510" y="445" width="140" height="60" as="geometry" />
        </mxCell>
        <mxCell id="y7YUD5gvW1xx9Sv0R6KF-23" style="edgeStyle=orthogonalEdgeStyle;rounded=0;orthogonalLoop=1;jettySize=auto;html=1;exitX=0.5;exitY=1;exitDx=0;exitDy=0;" edge="1" parent="1" source="y7YUD5gvW1xx9Sv0R6KF-10" target="y7YUD5gvW1xx9Sv0R6KF-11">
          <mxGeometry relative="1" as="geometry" />
        </mxCell>
        <mxCell id="y7YUD5gvW1xx9Sv0R6KF-24" style="edgeStyle=orthogonalEdgeStyle;rounded=0;orthogonalLoop=1;jettySize=auto;html=1;exitX=0.75;exitY=1;exitDx=0;exitDy=0;" edge="1" parent="1" source="y7YUD5gvW1xx9Sv0R6KF-10" target="y7YUD5gvW1xx9Sv0R6KF-12">
          <mxGeometry relative="1" as="geometry">
            <Array as="points">
              <mxPoint x="400" y="580" />
              <mxPoint x="400" y="600" />
              <mxPoint x="344" y="600" />
            </Array>
          </mxGeometry>
        </mxCell>
        <mxCell id="y7YUD5gvW1xx9Sv0R6KF-27" style="edgeStyle=orthogonalEdgeStyle;rounded=0;orthogonalLoop=1;jettySize=auto;html=1;exitX=0.75;exitY=1;exitDx=0;exitDy=0;entryX=0.5;entryY=0;entryDx=0;entryDy=0;" edge="1" parent="1" source="y7YUD5gvW1xx9Sv0R6KF-10" target="y7YUD5gvW1xx9Sv0R6KF-13">
          <mxGeometry relative="1" as="geometry">
            <Array as="points">
              <mxPoint x="400" y="580" />
              <mxPoint x="400" y="600" />
              <mxPoint x="510" y="600" />
            </Array>
          </mxGeometry>
        </mxCell>
        <mxCell id="y7YUD5gvW1xx9Sv0R6KF-10" value="10_ユーザ管理画面&lt;div&gt;(トップ)&lt;/div&gt;" style="rounded=0;whiteSpace=wrap;html=1;" vertex="1" parent="1">
          <mxGeometry x="330" y="520" width="140" height="60" as="geometry" />
        </mxCell>
        <mxCell id="y7YUD5gvW1xx9Sv0R6KF-35" style="edgeStyle=orthogonalEdgeStyle;rounded=0;orthogonalLoop=1;jettySize=auto;html=1;exitX=0;exitY=0.5;exitDx=0;exitDy=0;" edge="1" parent="1" source="y7YUD5gvW1xx9Sv0R6KF-11" target="y7YUD5gvW1xx9Sv0R6KF-4">
          <mxGeometry relative="1" as="geometry" />
        </mxCell>
        <mxCell id="y7YUD5gvW1xx9Sv0R6KF-11" value="11_ユーザ管理画面(お気に入り料理の管理画面)" style="rounded=0;whiteSpace=wrap;html=1;" vertex="1" parent="1">
          <mxGeometry x="110" y="620" width="140" height="60" as="geometry" />
        </mxCell>
        <mxCell id="y7YUD5gvW1xx9Sv0R6KF-12" value="12_ユーザ管理画面&lt;div&gt;(カロリー管理画面)&lt;/div&gt;" style="rounded=0;whiteSpace=wrap;html=1;" vertex="1" parent="1">
          <mxGeometry x="273.5" y="620" width="140" height="60" as="geometry" />
        </mxCell>
        <mxCell id="y7YUD5gvW1xx9Sv0R6KF-13" value="13_ユーザ管理画面&lt;div&gt;(体重管理画面)&lt;/div&gt;" style="rounded=0;whiteSpace=wrap;html=1;" vertex="1" parent="1">
          <mxGeometry x="440" y="620" width="140" height="60" as="geometry" />
        </mxCell>
        <mxCell id="y7YUD5gvW1xx9Sv0R6KF-14" value="14_ユーザ管理画面&lt;div&gt;(プロフィール変更画面)&lt;/div&gt;" style="rounded=0;whiteSpace=wrap;html=1;" vertex="1" parent="1">
          <mxGeometry x="600" y="620" width="140" height="60" as="geometry" />
        </mxCell>
        <mxCell id="y7YUD5gvW1xx9Sv0R6KF-20" style="edgeStyle=orthogonalEdgeStyle;rounded=0;orthogonalLoop=1;jettySize=auto;html=1;" edge="1" parent="1" source="y7YUD5gvW1xx9Sv0R6KF-15" target="y7YUD5gvW1xx9Sv0R6KF-2">
          <mxGeometry relative="1" as="geometry" />
        </mxCell>
        <mxCell id="y7YUD5gvW1xx9Sv0R6KF-15" value="" style="ellipse;whiteSpace=wrap;html=1;fillColor=#121212;" vertex="1" parent="1">
          <mxGeometry x="30" y="110" width="20" height="20" as="geometry" />
        </mxCell>
        <mxCell id="y7YUD5gvW1xx9Sv0R6KF-26" style="edgeStyle=orthogonalEdgeStyle;rounded=0;orthogonalLoop=1;jettySize=auto;html=1;exitX=0.75;exitY=1;exitDx=0;exitDy=0;entryX=0.571;entryY=0.067;entryDx=0;entryDy=0;entryPerimeter=0;" edge="1" parent="1" source="y7YUD5gvW1xx9Sv0R6KF-10" target="y7YUD5gvW1xx9Sv0R6KF-14">
          <mxGeometry relative="1" as="geometry">
            <Array as="points">
              <mxPoint x="400" y="580" />
              <mxPoint x="400" y="600" />
              <mxPoint x="680" y="600" />
            </Array>
          </mxGeometry>
        </mxCell>
        <mxCell id="y7YUD5gvW1xx9Sv0R6KF-45" style="edgeStyle=orthogonalEdgeStyle;rounded=0;orthogonalLoop=1;jettySize=auto;html=1;exitX=0.25;exitY=1;exitDx=0;exitDy=0;entryX=0.75;entryY=1;entryDx=0;entryDy=0;" edge="1" parent="1" source="y7YUD5gvW1xx9Sv0R6KF-12" target="y7YUD5gvW1xx9Sv0R6KF-12">
          <mxGeometry relative="1" as="geometry" />
        </mxCell>
        <mxCell id="y7YUD5gvW1xx9Sv0R6KF-46" style="edgeStyle=orthogonalEdgeStyle;rounded=0;orthogonalLoop=1;jettySize=auto;html=1;exitX=0.25;exitY=1;exitDx=0;exitDy=0;entryX=0.75;entryY=1;entryDx=0;entryDy=0;" edge="1" parent="1" source="y7YUD5gvW1xx9Sv0R6KF-13" target="y7YUD5gvW1xx9Sv0R6KF-13">
          <mxGeometry relative="1" as="geometry" />
        </mxCell>
        <mxCell id="y7YUD5gvW1xx9Sv0R6KF-47" style="edgeStyle=orthogonalEdgeStyle;rounded=0;orthogonalLoop=1;jettySize=auto;html=1;exitX=0.25;exitY=1;exitDx=0;exitDy=0;entryX=0.75;entryY=1;entryDx=0;entryDy=0;" edge="1" parent="1" source="y7YUD5gvW1xx9Sv0R6KF-14" target="y7YUD5gvW1xx9Sv0R6KF-14">
          <mxGeometry relative="1" as="geometry" />
        </mxCell>
        <mxCell id="y7YUD5gvW1xx9Sv0R6KF-48" style="edgeStyle=orthogonalEdgeStyle;rounded=0;orthogonalLoop=1;jettySize=auto;html=1;exitX=0.25;exitY=1;exitDx=0;exitDy=0;entryX=0.75;entryY=1;entryDx=0;entryDy=0;" edge="1" parent="1" source="y7YUD5gvW1xx9Sv0R6KF-11" target="y7YUD5gvW1xx9Sv0R6KF-11">
          <mxGeometry relative="1" as="geometry" />
        </mxCell>
      </root>
    </mxGraphModel>
  </diagram>
</mxfile>
